<svg width="21" height="21" viewBox="0 0 21 21" fill="none" xmlns="http://www.w3.org/2000/svg">
<path fill-rule="evenodd" clip-rule="evenodd" d="M1.11342 5.23161C1.28709 8.34268 3.21754 11.743 5.89047 14.4163C8.56249 17.0886 11.9622 19.0201 15.0733 19.1928C15.8538 19.2358 17.0037 18.7739 17.9036 18.0695C18.3473 17.7222 18.7233 17.3194 18.9542 16.8938C19.167 16.5025 19.2529 16.0922 19.1451 15.6932C19.041 15.3086 18.7538 14.9192 18.2242 14.5452C17.603 14.1434 16.8863 13.7196 16.2804 13.3961C15.7451 13.1098 15.308 12.9046 15.1239 12.8693C14.7011 12.7901 14.2326 12.9581 13.7555 13.2501C13.2335 13.5689 12.7048 14.0336 12.2067 14.4984C11.5416 15.1188 10.3832 14.7742 9.20759 13.9697C8.67798 13.607 8.13979 13.1528 7.64645 12.6594C7.15311 12.166 6.69888 11.6287 6.33626 11.0981C5.53086 9.92233 5.18735 8.76375 5.80759 8.09866C6.2723 7.60048 6.73799 7.07084 7.05576 6.54977C7.34776 6.07261 7.5157 5.60402 7.43651 5.18123C7.40215 4.99704 7.19699 4.55995 6.91073 4.02456C6.58629 3.41759 6.16355 2.70183 5.76181 2.07962V2.07866C5.38871 1.54899 4.99937 1.26271 4.61481 1.15868C4.21594 1.05084 3.8056 1.13769 3.41435 1.34955C2.98875 1.5805 2.58607 1.95652 2.23872 2.40029C1.53162 3.30119 1.06975 4.45117 1.11365 5.23187L1.11342 5.23161ZM5.37136 14.9345C2.58305 12.1449 0.5667 8.57087 0.383484 5.27168C0.331001 4.32783 0.856792 2.97935 1.66123 1.95148C2.0668 1.43422 2.54582 0.989497 3.06303 0.708929C3.61458 0.409256 4.20718 0.290935 4.80168 0.452206C5.34466 0.599174 5.87425 0.976133 6.35615 1.6585C6.36188 1.66613 6.36761 1.67472 6.37333 1.68236C6.78461 2.31796 7.21879 3.05471 7.55468 3.68171C7.87341 4.27817 8.10624 4.78873 8.1549 5.04736C8.27227 5.67437 8.05852 6.31092 7.67969 6.93123C7.32757 7.50766 6.83328 8.07168 6.34277 8.59751C6.00402 8.96017 6.32464 9.78663 6.94013 10.6866C7.27412 11.1742 7.69876 11.6753 8.16443 12.141C8.63009 12.6067 9.13203 13.0314 9.61965 13.3654C10.5195 13.9819 11.3449 14.3016 11.7085 13.9628C12.2352 13.4713 12.7983 12.978 13.3746 12.6258C13.9949 12.2469 14.6314 12.0331 15.2583 12.1505C15.5169 12.1992 16.0274 12.432 16.6238 12.7508C17.2508 13.0858 17.9865 13.5209 18.622 13.9313L18.6325 13.938C19.3234 14.4219 19.7051 14.9553 19.8521 15.5021C20.0133 16.0967 19.895 16.6894 19.5954 17.241C19.3148 17.7582 18.8701 18.2373 18.3529 18.6429C17.3252 19.4484 15.9768 19.9733 15.0331 19.9208C11.7342 19.7395 8.16064 17.723 5.37136 14.9345Z" fill="#FD550A" stroke="#FD550A" stroke-width="0.759654"/>
</svg>
